<svg width="300" height="54" viewBox="0 0 300 54" fill="none" xmlns="http://www.w3.org/2000/svg">
<g clip-path="url(#clip0)">
<path d="M257.38 25.8788C257.054 24.161 256.356 22.564 255.35 21.234C253.932 19.4579 252.074 18.2174 250.022 17.6778C246.988 16.9485 243.888 16.6335 240.79 16.7395C236.26 16.7395 233.34 17.3494 231.268 18.2502C230.276 18.7132 229.372 19.392 228.606 20.2488V18.5036H222.734V53.5402H228.63V31.2928C228.63 25.4846 233.826 23.1952 239.014 23.1952H241.612C246.8 23.1952 252.052 25.4846 252.052 31.2928V53.5402H257.866V34.4362C257.962 31.5726 257.802 28.7054 257.388 25.8788" fill="#D2001A"/>
<path d="M158.254 16.6447H164.116C164.086 13.781 164.26 10.9192 164.634 8.08728C164.875 6.62186 165.49 5.27038 166.402 4.20268C167.553 2.73384 169.038 1.65863 170.693 1.09686C173.561 0.356992 176.493 -0.00817424 179.433 0.00841422H184.941L179.638 5.87288H177.377C169.575 5.87288 170.118 11.5685 170.118 16.6072H183.831L178.29 23.044H169.978V53.4454H164.05V23.044H158.189L158.254 16.6447Z" fill="#D2001A"/>
<path d="M158.263 5.12323H152.392V11.9823H158.263V5.12323Z" fill="#D2001A"/>
<path d="M107.109 35.1774C107.203 38.6036 106.777 42.0224 105.851 45.283C105.029 47.9478 102.077 53.9718 87.9118 53.9718C73.7462 53.9718 70.8276 47.9478 69.9726 45.283C68.2738 38.6568 68.2738 31.6136 69.9726 24.9874C70.7948 22.3226 73.7462 16.3079 87.9118 16.3079C102.077 16.3079 105.029 22.36 105.851 25.0248C106.785 28.3 107.213 31.7352 107.117 35.1774H107.109ZM99.7178 27.1266C99.4622 26.393 99.0636 25.7354 98.5522 25.2038C98.0408 24.6722 97.43 24.2804 96.7662 24.0584C95.2536 23.4954 92.5816 23.1764 87.9282 23.12C83.2666 23.1952 80.603 23.5142 79.082 24.0584C78.4186 24.2818 77.8084 24.6738 77.2972 25.2054C76.786 25.7368 76.387 26.3938 76.1304 27.1266C75.6948 28.2808 75.2096 31.1052 75.2096 35.1774C75.2096 39.2498 75.6948 42.0646 76.1304 43.2188C76.388 43.952 76.7872 44.6094 77.2982 45.1424C77.8092 45.6752 78.419 46.0696 79.082 46.2964C80.603 46.85 83.2666 47.169 87.9282 47.2348C92.5816 47.1596 95.2536 46.8406 96.7662 46.2964C97.4298 46.071 98.04 45.6768 98.5512 45.1438C99.0624 44.6108 99.4612 43.9528 99.7178 43.2188C100.432 40.6196 100.746 37.899 100.647 35.1774C100.647 31.1052 100.153 28.2808 99.7178 27.1266Z" fill="white"/>
<path d="M218.426 35.1774C218.52 38.605 218.09 42.0248 217.152 45.283C216.33 47.9478 213.38 53.9718 199.213 53.9718C185.048 53.9718 182.129 47.9478 181.274 45.283C179.575 38.6568 179.575 31.6136 181.274 24.9874C182.096 22.3226 185.048 16.3079 199.213 16.3079C213.38 16.3079 216.298 22.3226 217.152 24.9874C218.094 28.2606 218.524 31.6968 218.426 35.14V35.1774ZM211.028 27.0892C210.77 26.356 210.368 25.699 209.856 25.1676C209.344 24.6362 208.732 24.2442 208.068 24.0208C206.556 23.4578 203.884 23.1388 199.23 23.0826C194.568 23.1576 191.905 23.4766 190.392 24.0208C189.727 24.243 189.115 24.6346 188.602 25.1662C188.09 25.6976 187.69 26.3552 187.432 27.0892C186.996 28.2432 186.511 31.0676 186.511 35.14C186.511 39.2122 186.996 42.0272 187.432 43.1812C187.691 43.9154 188.091 44.5736 188.604 45.1066C189.116 45.6394 189.727 46.0334 190.392 46.259C191.905 46.8126 194.568 47.1316 199.23 47.1972C203.884 47.1222 206.556 46.8032 208.068 46.259C208.732 46.0322 209.342 45.6378 209.856 45.105C210.368 44.5722 210.768 43.9148 211.028 43.1812C212.256 37.9088 212.256 32.3616 211.028 27.0892Z" fill="#D2001A"/>
<path d="M64.0038 25.813C63.673 24.0916 62.966 22.4938 61.9484 21.1684C60.518 19.3884 58.6446 18.1507 56.5798 17.6215C53.5438 16.8863 50.4412 16.5713 47.339 16.6832C42.7678 16.6832 39.6602 17.1055 37.572 17.9969C35.8374 18.7221 34.355 20.0684 33.3462 21.8346C32.187 19.9984 30.55 18.6259 28.6682 17.9124C26.4976 17.0773 22.4692 16.6739 17.3801 16.6739C13.5654 16.6739 10.9428 16.9835 9.36425 17.6122C8.07238 18.205 6.90018 19.0926 5.91946 20.2206V18.4285H0.0411224V53.4558H5.90302V31.2084C5.90302 25.4002 11.0743 23.1106 16.3031 23.1106H18.9258C24.1546 23.1106 29.3752 25.4002 29.3752 31.2084V53.4558H35.2288V31.2084C35.2288 25.4002 40.3426 23.1106 45.5714 23.1106H48.194C53.4146 23.1106 58.66 25.4002 58.66 31.2084V53.4558H64.5136V34.3798C64.6098 31.5162 64.45 28.649 64.0368 25.8224" fill="white"/>
<path d="M296.942 37.7766H299.934C299.934 36.9602 300 36.1064 300 35.215C300.1 31.7754 299.672 28.3426 298.734 25.0718C297.912 22.407 294.96 16.3923 280.794 16.3923C266.63 16.3923 263.702 22.36 262.88 25.0248C261.188 31.6394 261.188 38.6684 262.88 45.283C263.702 47.9478 266.654 53.9718 280.82 53.9718C294.984 53.9718 297.904 47.9478 298.758 45.283C298.832 45.0484 298.906 44.8046 298.972 44.5606H291.894C291.304 45.3564 290.528 45.9452 289.658 46.259C288.136 46.8126 285.472 47.1316 280.82 47.1972C276.158 47.1222 273.494 46.8032 271.982 46.259C271.318 46.0322 270.706 45.6378 270.194 45.105C269.682 44.5722 269.282 43.9148 269.022 43.1812C268.516 41.4194 268.24 39.5828 268.2 37.7296H296.974L296.942 37.7766ZM271.924 24.0584C273.436 23.4954 276.1 23.1764 280.762 23.12C285.416 23.1952 288.078 23.5142 289.6 24.0584C290.264 24.2804 290.874 24.6722 291.386 25.2038C291.898 25.7354 292.296 26.393 292.552 27.1266C292.994 28.5106 293.27 29.956 293.374 31.4242H268.232C268.316 29.9588 268.572 28.513 268.998 27.1266C269.256 26.3934 269.656 25.7366 270.168 25.2052C270.682 24.6738 271.292 24.2818 271.956 24.0584" fill="#D2001A"/>
<path d="M158.263 16.6457H152.392V53.4746H158.263V16.6457Z" fill="white"/>
<path d="M146.958 25.0238C146.136 22.359 143.193 16.3444 129.027 16.3444C123.601 16.3444 119.836 17.2264 117.196 18.465V0.00836182H111.335V53.5768H117.196V51.8502C119.836 53.0888 123.601 53.9708 129.027 53.9708C143.193 53.9708 146.111 47.9656 146.958 45.2914C148.657 38.6652 148.657 31.622 146.958 24.9956V25.0238ZM140.817 43.1896C140.562 43.9246 140.163 44.5838 139.652 45.117C139.141 45.6502 138.53 46.0436 137.865 46.2672C136.352 46.8208 133.68 47.1398 129.027 47.2056C124.366 47.1306 122.532 46.8114 121.011 46.2672C120.348 46.0418 119.737 45.6476 119.226 45.1146C118.715 44.5816 118.316 43.9236 118.06 43.1896C117.532 41.3714 117.241 39.4744 117.196 37.5596V32.7836C117.241 30.8688 117.532 28.972 118.06 27.1538C118.316 26.4208 118.715 25.764 119.226 25.2324C119.738 24.701 120.348 24.3088 121.011 24.0856C122.532 23.532 124.366 23.2034 129.027 23.1472C133.68 23.2222 136.352 23.5506 137.865 24.0856C138.529 24.3076 139.14 24.6992 139.651 25.231C140.163 25.7626 140.561 26.4202 140.817 27.1538C142.055 32.4246 142.055 37.975 140.817 43.2458" fill="white"/>
</g>
<defs>
<clipPath id="clip0">
<rect width="300" height="54" fill="white"/>
</clipPath>
</defs>
</svg>
